<svg viewBox="0 0 360 360" fill="none" xmlns="http://www.w3.org/2000/svg"><g clip-path="url(#a)"><path fill="#881ABB" d="M0 0h360v360H0z"/><mask id="b" maskUnits="userSpaceOnUse" x="-284" y="71" width="551" height="93" fill="#000"><path fill="#fff" d="M-284 71h551v93h-551z"/><path d="m-244 137-1-4-1-4-3-3-4-2-8-4-7-6a22 22 0 0 1-5-16 25 25 0 0 1 10-18c2-2 5-4 9-5 3-1 7-2 10-1 5 0 10 1 13 3 4 3 6 6 8 10s2 8 2 13h-17v-6l-2-5-5-1c-2-1-4 0-6 1l-4 4-1 5v4l2 3a22 22 0 0 0 7 5l8 4 7 6 3 7 1 10c0 4-1 7-3 10a24 24 0 0 1-15 13 32 32 0 0 1-21-1 23 23 0 0 1-13-15c-1-3-2-7-1-11h16v5l2 5 3 3 5 1 5-1 4-4 2-5Zm43 10 24-72h9l1 12-25 73h-10l1-13Zm7-72-1 73-4 12h-10l-2-85h17Zm27 71 22-71h17l-28 85h-11v-14Zm4-71 2 73-3 12h-9l-3-75 4-10h9Zm62 0-15 85h-17l15-85h17Zm45 0-15 85h-16l14-85h17Zm21 0-3 14h-57l2-14h58Zm37 57 16-1c-1 6-2 12-5 16-3 5-6 8-11 11-4 2-10 3-16 3-5 0-9-1-12-3-4-2-6-5-8-9-2-3-3-7-3-11v-13l2-15 3-14 7-11c3-4 6-7 10-9s9-3 14-3c7 1 11 2 15 5 4 2 6 6 8 11l2 15H7v-8l-2-6-7-2c-3-1-6 0-8 1l-4 6c-2 2-2 5-3 7l-2 8-2 15a167 167 0 0 0 0 14l2 6 7 2c3 0 6 0 7-2l5-5 2-8Zm77-23-3 14H42l3-14h34ZM56 75l-15 85H24l15-85h17Zm41 0-15 85H66l14-85h17Zm31 0-15 85H96l15-85h17Zm72 0-15 85h-16l-15-57-10 57h-17l15-85h16l15 57 10-57h17Zm62 40-5 35-8 7-10 3-11 1c-5 0-9-1-13-3l-8-8-4-12v-13l3-15c0-5 2-9 3-14l7-12a29 29 0 0 1 24-11l15 4c3 3 6 6 7 10 2 4 3 9 3 15h-16l-1-7-2-5c-2-2-4-2-7-2-3-1-5 0-7 1l-5 6c-2 2-3 5-3 7l-2 8-2 15v14l3 6 7 2a19 19 0 0 0 7-2l3-1 4-16h-12l2-13h28Z"/></mask><path d="M-244 137h2-2Zm-2-8-2 1 2-1Zm-3-3-2 2h1l1-2Zm-4-2-1 2 1-2Zm-8-4-1 1 1-1Zm-7-6-1 1 1-1Zm-5-16h-2 2Zm3-10-2-1 2 1Zm7-8 1 1-1-1Zm9-5v2-2Zm10-1v-2 2Zm13 3-1 2 1-2Zm8 10h-2 2Zm2 13v2h2v-2h-2Zm-17 0h-2v2h2v-2Zm0-6h-2v1l2-1Zm-2-5-2 2 2-2Zm-5-1v2-2Zm-6 1-1-2 1 2Zm-4 4 2 1-2-1Zm-1 5h-2 2Zm0 4-2 1 2-1Zm2 3-1 2 1-2Zm4 3-2 2 2-2Zm3 2 1-2-1 2Zm8 4-1 2 1-2Zm7 6-2 1 2-1Zm3 7-2 1 2-1Zm1 10h2-2Zm-3 10-1-1 1 1Zm-6 8 1 2-1-2Zm-9 5v-2 2Zm-10 1v2-2Zm-11-2-1 2 1-2Zm-8-6-2 1 2-1Zm-6-20v-2h-2v2h2Zm16 0h2v-2h-2v2Zm0 5-2 1 2-1Zm2 5-2 1 2-1Zm3 3-1 2 1-2Zm18-9-1-5-3 1v4h4Zm-1-5-2-4-3 2 2 3 3-1Zm-2-4-3-3-2 3 2 2 3-2Zm-3-3-5-3-1 4 3 2 3-3Zm-5-3-7-4-2 3 8 5 1-4Zm-7-4-6-5-3 2c2 3 4 5 7 6l2-3Zm-6-5-4-7-4 2 5 7 3-2Zm-4-7-1-8h-4l1 10 4-2Zm-1-8c0-4 1-7 3-9l-4-2c-2 3-3 7-3 11h4Zm3-9c1-3 3-6 6-8l-3-3-7 9 4 2Zm6-8 8-4-1-4-10 5 3 3Zm8-4c3-1 7-2 10-1v-4c-4-1-7 0-11 1l1 4Zm10-1c5 0 9 1 12 3l2-3c-4-3-8-4-14-4v4Zm12 3 7 8 4-1c-2-4-5-8-9-10l-2 3Zm7 8c2 4 2 8 2 13h4c0-5 0-10-2-14l-4 1Zm4 11h-17v4h17v-4Zm-15 2v-6l-4 1v5h4Zm0-6-3-6-3 3 2 3h4Zm-3-6c-1-2-4-2-6-2v4l3 1 3-3Zm-6-2c-3-1-5 0-7 1l2 4c1-1 3-2 5-1v-4Zm-7 1-4 5 3 2 3-3-2-4Zm-4 5-2 6h4l1-4-3-2Zm-2 6v5l4-2v-3h-4Zm0 5 3 4 3-3-2-3-4 2Zm3 4 3 3 3-4-3-2-3 3Zm3 3 4 2 2-4-3-2-3 4Zm4 2 8 4 2-3-8-5-2 4Zm8 4 6 5 3-2-7-6-2 3Zm6 5c2 2 3 5 3 7l4-1-4-8-3 2Zm3 7 1 9h4l-1-10-4 1Zm1 9-2 9 3 2c2-3 3-7 3-11h-4Zm-2 9-6 8 2 3 7-9-3-2Zm-6 8-8 4 1 4 9-5-2-3Zm-8 4-10 1v4l11-1-1-4Zm-10 1-10-2-2 4 12 2v-4Zm-10-2-8-5-3 2 9 7 2-4Zm-8-5-4-9-4 2 5 9 3-2Zm-4-9c-1-3-2-6-1-10h-4c-1 4 0 8 1 12l4-2Zm-3-8h16v-4h-16v4Zm14-2v6l4-1v-5h-4Zm0 6 2 5 3-2-1-4-4 1Zm2 5 4 4 2-4-3-2-3 2Zm4 4 6 1v-4l-4-1-2 4Zm6 1 6-1-2-4-4 1v4Zm6-1 5-5-4-2c-1 2-1 3-3 3l2 4Zm5-5 2-6h-4l-2 4 4 2Zm43 4-2-1 2 1Zm24-72v-2h-1l-1 1 2 1Zm9 0h2v-2h-2v2Zm1 12h2-2Zm-25 73v2h1v-1l-1-1Zm-10 0h-2v2h2v-2Zm8-85h2v-2h-2v2Zm-1 73 2 1v-1h-2Zm-4 12v2h2v-1l-2-1Zm-10 0h-2v2h2v-2Zm-2-85v-2h-2v2h2Zm44 71h-2 2Zm22-71v-2h-2v1l2 1Zm17 0h2v-2h-2v2Zm-28 85v2h1l1-1-2-1Zm-11 0h-2v2h2v-2Zm4-85h2v-2h-2v2Zm2 73 2 1v-1h-2Zm-3 12v2h2v-2h-2Zm-9 0h-2v2h2v-2Zm-3-75-2-1v1h2Zm4-10v-2h-1v1l1 1Zm-27 72 24-72-4-1-24 72 4 1Zm22-70h9v-4h-9v4Zm7-2 1 12h4l-1-12h-4Zm1 11-25 73 3 2 26-74-4-1Zm-23 72h-10v4h10v-4Zm-8 2 1-13-4-1-1 14h4Zm4-85-1 73h4l1-73h-4Zm-1 73-3 11 3 2 4-12-4-1Zm-2 10h-10v4h10v-4Zm-8 2-2-85h-4l2 85h4Zm-4-83h17v-4h-17v4Zm46 70 22-72-4-1-22 72 4 1Zm20-70h17v-4h-17v4Zm15-3-28 85 4 2 28-86-4-1Zm-26 84h-11v4h11v-4Zm-9 2v-14h-4v14h4Zm0-85 2 73h4l-2-73h-4Zm2 73-3 12h4l3-11-4-1Zm-1 10h-9v4h9v-4Zm-7 2-3-75h-4l3 75h4Zm-3-74 4-11-3-1-5 10 4 2Zm2-9h9v-4h-9v4Zm71-2h2v-2h-2v2Zm-15 85v2h2v-2h-2Zm-17 0h-2v2h2v-2Zm15-85v-2h-2v1l2 1Zm15-1-15 86h4l15-85-4-1Zm-13 84h-17v4h17v-4Zm-15 2 15-85-4-1-15 86h4Zm13-83h17v-4h-17v4Zm62-2h2v-2h-2v2Zm-15 85v2h2v-2h-2Zm-16 0h-2l-1 2h3v-2Zm14-85v-2h-1l-1 1 2 1Zm38 0h2v-2h-2v2Zm-3 14v2h2v-2h-2Zm-57 0h-2l-1 2h3v-2Zm2-14v-2h-1l-1 1 2 1Zm35-1-15 86h4l15-85-4-1Zm-13 84h-16v4h16v-4Zm-14 2 14-85-4-1-14 86h4Zm12-83h17v-4h-17v4Zm36-3-3 15h4l3-14-4-1Zm-1 13h-57v4h57v-4Zm-55 2 2-14-4-1-2 15h4Zm0-12h58v-4h-58v4Zm95 55v-2H0v1l2 1Zm16-1 2 1v-3h-2v2Zm-5 16-2-1 2 1ZM2 158l-1-2 1 2Zm-16 3v-2 2Zm-12-3-2 2 2-2Zm-8-9-2 1 2-1Zm-3-11h-2 2Zm0-13-2-1 2 1Zm2-15h2-2Zm3-14 2 1-2-1Zm7-11-1-2 1 2Zm10-9-1-2 1 2Zm14-3v2-2Zm15 5-1 1 1-1Zm8 11 2-1-2 1Zm2 15v2h2v-2h-2Zm-17 0-2-1v3h2v-2Zm0-8H5h2Zm-2-6-2 1 2-1Zm-7-2v2-2Zm-8 1-1-1 1 1Zm-4 6-2-1 2 1Zm-3 7h-2 2Zm-2 8h-1 1Zm-2 15-2-1 2 1Zm0 7-2-1 2 1Zm0 7h-2 2Zm2 6-1 1 1-1Zm7 2v-2 2Zm7-2-1-1 1 1Zm5-5-2-1 2 1Zm2-6 16-1v-4l-16 1v4Zm14-3c0 6-2 11-5 15l4 2c3-5 4-10 5-16l-4-1Zm-5 15c-2 4-5 8-10 10l2 3c5-2 9-6 12-11l-4-2ZM1 156c-4 2-9 3-15 3v4c7 0 12-1 17-4l-2-3Zm-15 3c-5 0-8-1-11-3l-3 4c4 2 9 3 14 3v-4Zm-11-3c-3-2-6-4-7-8l-4 2 8 10 3-4Zm-7-7-4-11h-3c0 4 1 9 3 12l4-1Zm-4-11 1-13-4-1v14h3Zm1-13 2-15h-4l-2 14 4 1Zm2-15 3-13-3-1-4 14h4Zm3-13 7-11-3-3c-3 4-6 8-7 13l3 1Zm7-11c2-4 5-6 9-8l-2-4-10 9 3 3Zm9-8c4-2 8-3 13-3v-4l-15 3 2 4Zm13-3c6 1 11 2 14 4l2-3c-4-3-9-4-16-5v4Zm14 4 7 10 4-1c-2-5-5-9-9-12l-2 3Zm7 10 2 15h4l-2-16-4 1Zm4 13H7v4h17v-4Zm-15 2v-8H5v7l4 1Zm0-8c0-3-1-5-3-7l-3 2 2 5h4Zm-3-7c-1-2-4-3-8-3v4l5 1 3-2Zm-8-3c-3-1-6 0-9 2l3 3c1-1 3-2 6-1v-4Zm-9 2c-2 1-4 3-5 6l3 2 5-5-3-3Zm-5 6-3 8 4 1 2-7-3-2Zm-3 8-1 8h3l2-7-4-1Zm-1 8-3 14 4 1 2-15h-3Zm-3 14v7l4 1v-7l-4-1Zm0 7v8h4v-7l-4-1Zm0 8c0 3 1 5 3 7l3-3-2-4h-4Zm3 7c1 2 4 3 7 3l1-4c-3 0-4-1-5-2l-3 3Zm7 3c4 0 7 0 10-2l-3-3-6 1-1 4Zm10-2 5-7-4-1-4 5 3 3Zm5-7 2-8-4-1-2 8 4 1Zm77-31 2 1v-3h-2v2Zm-3 14v2h2v-1l-2-1Zm-34 0h-2v2h2v-2Zm3-14v-2h-2v2h2Zm11-34h2v-2h-2v2Zm-15 85v2h2v-2h-2Zm-17 0h-2v2h2v-2Zm15-85v-2h-2v1l2 1Zm58 0h2v-2h-2v2Zm-15 85v2h2v-2h-2Zm-16 0h-2l-1 2h3v-2Zm14-85v-2h-1l-1 1 2 1Zm-3 34-3 14 4 1 3-14-4-1Zm-1 12H42v4h34v-4Zm-32 3 3-14-4-1-3 14 4 1Zm1-13h34v-4H45v4Zm9-37-15 86h4l15-85-4-1Zm-13 84H24v4h17v-4Zm-15 2 15-85-4-1-15 86h4Zm13-83h17v-4H39v4Zm56-3-15 86h4l15-85-4-1Zm-13 84H66v4h16v-4Zm-14 2 14-85-4-1-14 86h4Zm12-83h17v-4H80v4Zm48-2h2v-2h-2v2Zm-15 85v2h2v-2h-2Zm-17 0h-2v2h2v-2Zm15-85v-2h-2v1l2 1Zm15-1-15 86h4l15-85-4-1Zm-13 84H96v4h17v-4Zm-15 2 15-85-4-1-15 86h4Zm13-83h17v-4h-17v4Zm89-2h2v-2h-2v2Zm-15 85v2h2v-2h-2Zm-16 0-2 1v1h2v-2Zm-15-57h2-4 2Zm-10 57v2h2v-2h-2Zm-17 0h-2v2h2v-2Zm15-85v-2h-2v1l2 1Zm16 0 2-1v-1h-2v2Zm15 57h-2 4-2Zm10-57v-2h-2v1l2 1Zm15-1-15 86h4l15-85-4-1Zm-13 84h-16v4h16v-4Zm-14 1-15-56-4 1 15 57 4-2Zm-19-56-10 57h4l10-56-4-1Zm-8 55h-17v4h17v-4Zm-15 2 15-85-4-1-15 86h4Zm13-83h16v-4h-16v4Zm14-2 15 57 4-1-15-57-4 1Zm19 57 10-57-4-1-10 57 4 1Zm8-55h17v-4h-17v4Zm79 38h2l1-2h-3v2Zm-5 35 1 2 1-1-2-1Zm-8 7-1-2 1 2Zm-10 3-1-2 1 2Zm-11 1v2-2Zm-13-3-1 2 1-2Zm-8-8-2 1 2-1Zm-4-12h-2 2Zm0-13-2-1 2 1Zm3-15h2-2Zm3-14 2 1-2-1Zm7-12-2-1 2 1Zm10-8 1 2-1-2Zm14-3v2-2Zm15 4-2 2 2-2Zm7 10-2 1 2-1Zm3 15v2h2v-2h-2Zm-16 0h-2v2h2v-2Zm-1-7h-2 2Zm-2-5-2 1 2-1Zm-7-2 1-2h-1v2Zm-7 1 1 2-1-2Zm-5 6-2-1 2 1Zm-3 7 2 1-2-1Zm-2 8h2-2Zm-2 15-2-1 2 1Zm0 14-2 1 2-1Zm3 6-1 1 1-1Zm7 2v2-2Zm4 0v2-2Zm3-2 1 2-1-2Zm3-1 1 2 1-1v-1h-2Zm4-16 1 1 1-3h-2v2Zm-12 0h-2l-1 2h3v-2Zm2-13v-2h-2v2h2Zm26 0-5 35 4 1 5-36h-4Zm-5 34-7 6 2 3 8-6-3-3Zm-7 6-10 3 1 4 11-4-2-3Zm-10 3-10 1v4l11-1-1-4Zm-10 1c-5 0-9-1-12-3l-2 4c4 2 9 3 14 3v-4Zm-12-3-7-7-4 2 9 9 2-4Zm-7-7-4-11h-4l4 13 4-2Zm-4-11v-13l-4-1v14h4Zm0-13 3-15h-4l-3 14 4 1Zm3-15c0-4 1-9 3-13l-4-1c-1 4-3 9-3 14h4Zm3-13 6-11-3-3-7 13 4 1Zm6-11c3-4 6-6 10-8l-2-4c-4 3-8 5-11 9l3 3Zm10-8c4-2 8-3 13-3v-4l-15 3 2 4Zm13-3c6 1 10 2 13 4l3-3c-4-3-9-4-16-5v4Zm13 4c4 2 6 5 7 9l4-2c-2-4-4-8-8-10l-3 3Zm7 9c2 4 3 8 3 14h4c0-6-1-11-3-16l-4 2Zm5 12h-16v4h16v-4Zm-14 2-1-7h-4l1 7h4Zm-1-7c0-3-1-5-3-7l-3 3 2 4h4Zm-3-7-7-2-1 4 5 1 3-3Zm-8-2c-3-1-6 0-8 2l2 3c1-1 4-2 6-1v-4Zm-8 2c-3 1-5 3-6 6l3 2 5-5-2-3Zm-6 6-3 8 4 1 2-7-3-2Zm-3 8-2 8h4l2-7-4-1Zm-2 8-2 14 4 1 2-15h-4Zm-2 14v8h4v-7l-4-1Zm0 8v8l4-1v-7h-4Zm0 8 4 6 3-3-3-4-4 1Zm4 6c2 2 5 3 8 3v-4c-3 0-4-1-5-2l-3 3Zm8 3h4l-1-4h-3v4Zm4 0 4-2-2-3-3 1 1 4Zm4-2 3-1-2-4-3 2 2 3Zm4-3 3-15-3-1-4 15 4 1Zm2-18h-12v4h12v-4Zm-10 2 2-12-4-1-2 13h4Zm0-11h28v-4h-28v4Z" fill="#fff" fill-opacity=".3" mask="url(#b)"/><mask id="c" maskUnits="userSpaceOnUse" x="85" y="194" width="551" height="93" fill="#000"><path fill="#fff" d="M85 194h551v93H85z"/><path d="M125 260v-4l-2-4-3-3-4-2-8-4-7-6a22 22 0 0 1-5-16 25 25 0 0 1 10-18c2-2 5-4 9-5 3-1 7-2 10-1 5 0 10 1 13 3 4 3 6 6 8 10s2 8 2 13h-17v-6l-2-5-5-1c-2-1-4 0-6 1l-4 4-1 5v4l2 3a22 22 0 0 0 7 5l8 4 7 6 3 7c1 3 2 6 1 10 0 4-1 7-3 10a24 24 0 0 1-15 13 32 32 0 0 1-21-1 23 23 0 0 1-13-15c-1-3-2-7-1-11h16v5l2 5 3 3 5 1 5-1 4-4 2-5Zm43 10 24-72h9l1 12-25 73h-10l1-13Zm7-72-1 73-4 12h-10l-2-85h17Zm27 71 22-71h17l-28 85h-11v-14Zm4-71 2 73-3 12h-9l-3-75 4-10h9Zm62 0-15 85h-17l15-85h17Zm45 0-15 85h-16l14-85h17Zm21 0-3 14h-57l2-14h58Zm37 57 16-1c0 6-2 12-5 16-3 5-6 8-11 11-4 2-10 3-16 3-5 0-9-1-12-3-4-2-6-5-8-9-2-3-3-7-3-11v-13l2-15 3-14 7-11c3-4 6-7 10-9s9-3 14-3c7 1 11 2 15 5 4 2 6 6 8 11l2 15h-17v-8l-2-6-7-2c-3-1-6 0-8 1l-4 6c-2 2-2 5-3 7l-1 8-3 15a168 168 0 0 0 0 14l2 6 7 2c3 0 6 0 7-2l5-5 2-8Zm77-23-3 14h-34l3-14h34Zm-23-34-15 85h-17l15-85h17Zm41 0-15 85h-16l14-85h17Zm31 0-15 85h-17l15-85h17Zm72 0-15 85h-16l-15-57-10 57h-17l15-85h16l15 57 10-57h17Zm62 40-5 35-8 7-10 3-11 1c-5 0-9-1-13-3l-8-8-4-12v-13l3-15c0-5 2-9 3-14l7-12a29 29 0 0 1 24-11l15 4c3 3 6 6 7 10 2 4 3 9 3 15h-16l-1-7-2-5c-2-2-4-2-7-2-3-1-5 0-7 1l-5 6c-2 2-3 5-3 7l-2 8-2 15v14l3 6 7 2a19 19 0 0 0 7-2l3-1 4-16h-12l2-13h28Z"/></mask><path d="M125 260h2-2Zm-2-8-2 1 2-1Zm-3-3-1 2 1-2Zm-4-2-1 2 1-2Zm-8-4-1 1 1-1Zm-7-6-1 1 1-1Zm-5-16h-2 2Zm3-10-2-1 2 1Zm7-8 1 1-1-1Zm9-5v2-2Zm10-1v-2 2Zm13 3-1 2 1-2Zm8 10h-2 2Zm2 13v2h2v-2h-2Zm-17 0h-2v2h2v-2Zm0-6h-2v1l2-1Zm-2-5-2 2h1l1-2Zm-5-1v2-2Zm-6 1-1-2 1 2Zm-4 4 2 1-2-1Zm-1 5h-2 2Zm0 4-2 1 2-1Zm2 3-1 2 1-2Zm4 3-2 2 2-2Zm3 2 1-2-1 2Zm8 4-1 2 1-2Zm7 6-2 1 2-1Zm3 7-2 1 2-1Zm1 10h2-2Zm-3 10-1-1 1 1Zm-6 8 1 2-1-2Zm-9 5v-2 2Zm-10 1v2-2Zm-11-2-1 2 1-2Zm-8-6-2 1 2-1Zm-6-20v-2h-2v2h2Zm16 0h2v-2h-2v2Zm0 5-2 1 2-1Zm2 5-2 1 2-1Zm3 3-1 2 1-2Zm18-9-1-5-3 1v4h4Zm-1-5-2-4-3 2 2 3 3-1Zm-2-4-3-3-2 3 2 2 3-2Zm-3-3-5-3-1 4 4 2 2-3Zm-5-3-7-4-2 3 8 5 1-4Zm-7-4-6-5-3 2c2 3 4 5 7 6l2-3Zm-6-5-4-7-4 2 5 7 3-2Zm-4-7-1-8h-4l1 10 4-2Zm-1-8c0-4 1-7 3-9l-4-2c-2 3-3 7-3 11h4Zm3-9c1-3 3-6 6-8l-3-3-7 9 4 2Zm6-8 8-4-1-4-10 5 3 3Zm8-4c3-1 7-2 10-1v-4c-4-1-7 0-11 1l1 4Zm10-1c5 0 9 1 12 3l2-3c-4-3-8-4-14-4v4Zm12 3 7 8 4-1c-2-4-5-8-9-10l-2 3Zm7 8c2 4 2 8 2 13h4c0-5 0-10-2-14l-4 1Zm4 11h-17v4h17v-4Zm-15 2v-6l-4 1v5h4Zm0-6-3-6-2 3 1 3h4Zm-3-6c-1-2-4-2-6-2v4l3 1 3-3Zm-6-2c-3-1-5 0-7 1l2 4c1-1 3-2 5-1v-4Zm-7 1-4 5 3 2 3-3-2-4Zm-4 5-2 6h4l1-4-3-2Zm-2 6v5l4-2v-3h-4Zm0 5 3 4 3-3-2-3-4 2Zm3 4 3 3 3-4-3-2-3 3Zm3 3 4 2 2-4-3-2-3 4Zm4 2 8 4 2-3-8-5-2 4Zm8 4 6 5 3-2-7-6-2 3Zm6 5c2 2 3 5 3 7l4-1-4-8-3 2Zm3 7 1 9h4c1-4 0-7-1-10l-4 1Zm1 9-2 9 3 2c2-3 3-7 3-11h-4Zm-2 9-6 8 2 3 7-9-3-2Zm-6 8-8 4 1 4 9-5-2-3Zm-8 4-10 1v4l11-1-1-4Zm-10 1-10-2-2 4 12 2v-4Zm-10-2-8-5-3 2 9 7 2-4Zm-8-5-4-9-4 2 5 9 3-2Zm-4-9c-1-3-2-6-1-10h-4c-1 4 0 8 1 12l4-2Zm-3-8h16v-4H88v4Zm14-2v6l4-1v-5h-4Zm0 6 2 5 3-2-1-4-4 1Zm2 5 4 4 2-4-3-2-3 2Zm4 4 6 1v-4l-4-1-2 4Zm6 1 6-1-2-4-4 1v4Zm6-1 5-5-4-2c-1 2-1 3-3 3l2 4Zm5-5 2-6h-4l-2 4 4 2Zm43 4-2-1 2 1Zm24-72v-2h-1l-1 1 2 1Zm9 0h2v-2h-2v2Zm1 12h2-2Zm-25 73v2h1v-1l-1-1Zm-10 0h-2v2h2v-2Zm8-85h2v-2h-2v2Zm-1 73 2 1v-1h-2Zm-4 12v2h2v-1l-2-1Zm-10 0h-2v2h2v-2Zm-2-85v-2h-2v2h2Zm44 71h-2 2Zm22-71v-2h-2v1l2 1Zm17 0h2v-2h-2v2Zm-28 85v2h1l1-1-2-1Zm-11 0h-2v2h2v-2Zm4-85h2v-2h-2v2Zm2 73 2 1v-1h-2Zm-3 12v2h2v-2h-2Zm-9 0h-2v2h2v-2Zm-3-75-2-1v1h2Zm4-10v-2h-1v1l1 1Zm-27 72 24-72-4-1-24 72 4 1Zm22-70h9v-4h-9v4Zm7-2 1 12h4l-1-12h-4Zm1 11-25 73 3 2 26-74-4-1Zm-23 72h-10v4h10v-4Zm-8 2 1-13-4-1-1 14h4Zm4-85-1 73h4l1-73h-4Zm-1 73-3 11 3 2 4-12-4-1Zm-2 10h-10v4h10v-4Zm-8 2-2-85h-4l2 85h4Zm-4-83h17v-4h-17v4Zm46 70 22-72-4-1-22 72 4 1Zm20-70h17v-4h-17v4Zm15-3-28 85 4 2 28-86-4-1Zm-26 84h-11v4h11v-4Zm-9 2v-14h-4v14h4Zm0-85 2 73h4l-2-73h-4Zm2 73-3 12h4l3-11-4-1Zm-1 10h-9v4h9v-4Zm-7 2-3-75h-4l3 75h4Zm-3-74 4-11-3-1-5 10 4 2Zm2-9h9v-4h-9v4Zm71-2h2v-2h-2v2Zm-15 85v2h2v-2h-2Zm-17 0h-2v2h2v-2Zm15-85v-2h-2v1l2 1Zm15-1-15 86h4l15-85-4-1Zm-13 84h-17v4h17v-4Zm-15 2 15-85-4-1-15 86h4Zm13-83h17v-4h-17v4Zm62-2h2l1-2h-3v2Zm-15 85v2h2v-2h-2Zm-16 0h-2l-1 2h3v-2Zm14-85v-2h-1l-1 1 2 1Zm38 0h2v-2h-2v2Zm-3 14v2h2v-2h-2Zm-57 0h-2l-1 2h3v-2Zm2-14v-2h-1l-1 1 2 1Zm35-1-15 86h4l15-85-4-1Zm-13 84h-16v4h16v-4Zm-14 2 14-85-4-1-14 86h4Zm12-83h17v-4h-17v4Zm36-3-3 15h4l3-14-4-1Zm-1 13h-57v4h57v-4Zm-55 2 2-14-4-1-2 15h4Zm0-12h58v-4h-58v4Zm95 55v-2h-2v1l2 1Zm16-1 2 1v-3h-2v2Zm-5 16-2-1 2 1Zm-11 11-1-2 1 2Zm-16 3v-2 2Zm-12-3-2 2 2-2Zm-8-9-2 1 2-1Zm-3-11h-2 2Zm0-13-2-1 2 1Zm2-15h2-2Zm3-14 2 1-2-1Zm7-11-1-2 1 2Zm10-9-1-2 1 2Zm14-3v2-2Zm15 5-1 1 1-1Zm8 11 2-1-2 1Zm2 15v2h2v-2h-2Zm-17 0-2-1v3h2v-2Zm0-8h-2 2Zm-2-6-2 1 2-1Zm-7-2v2-2Zm-8 1-1-1 1 1Zm-4 6-2-1 2 1Zm-3 7h-2 2Zm-1 8h-2 2Zm-3 15-2-1 2 1Zm0 7-2-1 2 1Zm0 7h-2 2Zm2 6-1 1 1-1Zm7 2v-2 2Zm7-2-1-1 1 1Zm5-5-2-1 2 1Zm2-6 16-1v-4l-16 1v4Zm14-3c0 6-2 11-5 15l4 2c3-5 4-10 5-16l-4-1Zm-5 15c-2 4-5 8-10 10l2 3c5-2 9-6 12-11l-4-2Zm-10 10c-4 2-9 3-15 3v4c7 0 12-1 17-4l-2-3Zm-15 3c-5 0-8-1-11-3l-3 4c4 2 9 3 14 3v-4Zm-11-3c-3-2-6-4-7-8l-4 2 8 10 3-4Zm-7-7c-2-4-3-7-3-11h-4c0 4 1 9 3 12l4-1Zm-3-11v-13l-4-1v14h4Zm0-13 2-15h-4l-2 14 4 1Zm2-15 3-13-3-1-4 14h4Zm3-13 7-11-3-3c-3 4-6 8-7 13l3 1Zm7-11c2-4 6-6 9-8l-2-4-10 9 3 3Zm9-8c4-2 8-3 13-3v-4l-15 3 2 4Zm13-3c6 1 11 2 14 4l2-3c-4-3-9-4-16-5v4Zm14 4 7 10 4-1c-2-5-5-9-9-12l-2 3Zm7 10 2 15h4l-2-16-4 1Zm4 13h-17v4h17v-4Zm-15 2v-8h-4v7l4 1Zm0-8c0-3-1-5-3-7l-3 2 2 5h4Zm-3-7c-1-2-4-3-8-3v4l5 1 3-2Zm-8-3c-3-1-6 0-9 2l3 3c1-1 3-2 6-1v-4Zm-9 2c-2 1-4 3-5 6l3 2 5-5-3-3Zm-5 6-3 8 4 1 2-7-3-2Zm-3 8-1 8h3l2-7-4-1Zm-1 8-3 14 4 1 2-15h-3Zm-3 14v7l4 1v-7l-4-1Zm0 7v8h4v-7l-4-1Zm0 8c0 3 1 5 3 7l3-3-2-4h-4Zm3 7c2 2 4 3 7 3l1-4c-3 0-4-1-5-2l-3 3Zm7 3c4 0 7 0 10-2l-3-3-6 1-1 4Zm10-2 5-7-4-1-4 5 3 3Zm5-7 2-8-4-1-2 8 4 1Zm77-31 2 1v-3h-2v2Zm-3 14v2h2v-1l-2-1Zm-34 0h-2v2h2v-2Zm3-14v-2h-2v2h2Zm11-34h2v-2h-2v2Zm-15 85v2h2v-2h-2Zm-17 0h-2v2h2v-2Zm15-85v-2h-2v1l2 1Zm58 0h2v-2h-2v2Zm-15 85v2h2v-2h-2Zm-16 0h-2l-1 2h3v-2Zm14-85v-2h-1v1l1 1Zm-3 34-2 14 3 1 3-14-4-1Zm-1 12h-34v4h34v-4Zm-32 3 3-14-4-1-3 14 4 1Zm1-13h34v-4h-34v4Zm9-37-15 86h4l15-85-4-1Zm-13 84h-17v4h17v-4Zm-15 2 15-85-4-1-15 86h4Zm13-83h17v-4h-17v4Zm56-3-15 86h4l15-85-4-1Zm-13 84h-16v4h16v-4Zm-14 2 14-85-3-1-15 86h4Zm12-83h17v-4h-17v4Zm48-2h2v-2h-2v2Zm-15 85v2h2v-2h-2Zm-17 0h-2v2h2v-2Zm15-85v-2h-2v1l2 1Zm15-1-15 86h4l15-85-4-1Zm-13 84h-17v4h17v-4Zm-15 2 15-85-4-1-15 86h4Zm13-83h17v-4h-17v4Zm89-2h2v-2h-2v2Zm-15 85v2h2v-2h-2Zm-16 0-2 1v1h2v-2Zm-15-57h2-4 2Zm-10 57v2h2v-2h-2Zm-17 0h-2v2h2v-2Zm15-85v-2h-2v1l2 1Zm16 0 2-1v-1h-2v2Zm15 57h-2 4-2Zm10-57v-2h-1l-1 1 2 1Zm15-1-15 86h4l15-85-4-1Zm-13 84h-16v4h16v-4Zm-14 1-15-56-4 1 15 57 4-2Zm-19-56-10 57h4l10-56-4-1Zm-8 55h-17v4h17v-4Zm-15 2 15-85-4-1-15 86h4Zm13-83h16v-4h-16v4Zm14-2 15 57 4-1-15-57-4 1Zm19 57 10-57-4-1-10 57 4 1Zm8-55h17v-4h-17v4Zm79 38h2l1-2h-3v2Zm-5 35 1 2 1-1-2-1Zm-8 7-1-2 1 2Zm-10 3-1-2 1 2Zm-11 1v2-2Zm-13-3-1 2 1-2Zm-8-8-2 1 2-1Zm-4-12h-2 2Zm0-13-2-1 2 1Zm3-15h2-2Zm3-14 2 1-2-1Zm7-12-2-1 2 1Zm10-8 1 2-1-2Zm14-3v2-2Zm15 4-2 2 2-2Zm7 10-2 1 2-1Zm3 15v2h2v-2h-2Zm-16 0h-2v2h2v-2Zm-1-7h-2 2Zm-2-5-2 1 2-1Zm-7-2 1-2-1 2Zm-7 1 1 2-1-2Zm-5 6-2-1 2 1Zm-3 7 2 1-2-1Zm-2 8h2-2Zm-2 15-2-1 2 1Zm0 14-2 1 2-1Zm3 6-1 1 1-1Zm7 2v2-2Zm4 0v2-2Zm3-2 1 2-1-2Zm3-1 1 2 1-1v-1h-2Zm4-16 2 1v-3h-2v2Zm-12 0h-2l-1 2h3v-2Zm2-13v-2h-2v2h2Zm26 0-5 35 4 1 5-36h-4Zm-5 34-7 6 2 3 8-6-3-3Zm-7 6-10 3 1 4 11-4-2-3Zm-10 3-10 1v4l11-1-1-4Zm-10 1c-5 0-9-1-12-3l-2 4c4 2 9 3 14 3v-4Zm-12-3-7-7-4 2 9 9 2-4Zm-7-7-4-11h-4l4 13 4-2Zm-4-11v-13l-4-1v14h4Zm0-13 3-15h-4l-3 14 4 1Zm3-15c0-4 1-9 3-13l-4-1c-1 4-3 9-3 14h4Zm3-13 6-11-3-3-7 13 4 1Zm6-11c3-4 6-6 10-8l-2-4c-4 3-8 5-11 9l3 3Zm10-8c4-2 8-3 13-3v-4l-15 3 2 4Zm13-3c6 1 10 2 13 4l3-3c-4-3-9-4-16-5v4Zm13 4c4 2 6 5 7 9l4-2c-2-4-4-8-8-10l-3 3Zm7 9c2 4 3 8 3 14h4c0-6-1-11-3-16l-4 2Zm5 12h-16v4h16v-4Zm-14 2-1-7h-4l1 7h4Zm-1-7c0-3-1-5-3-7l-3 3 2 4h4Zm-3-7-7-2-1 4 5 1 3-3Zm-7-2c-4-1-7 0-9 2l2 3c1-1 4-2 6-1l1-4Zm-9 2c-3 1-5 3-6 6l3 2 5-5-2-3Zm-6 6-3 8 4 1 2-7-3-2Zm-3 8-2 8h4l2-7-4-1Zm-2 8-2 14 4 1 2-15h-4Zm-2 14v8h4v-7l-4-1Zm0 8v8l4-1v-7h-4Zm0 8 4 6 3-3-3-4-4 1Zm4 6c2 2 5 3 8 3v-4c-3 0-4-1-5-2l-3 3Zm8 3h4l-1-4h-3v4Zm4 0 4-2-2-3-3 1 1 4Zm4-2 3-1-2-4-3 2 2 3Zm4-3 4-15-4-1-4 15 4 1Zm2-18h-12v4h12v-4Zm-10 2 2-12-4-1-2 13h4Zm0-11h28v-4h-28v4Z" fill="#fff" fill-opacity=".3" mask="url(#c)"/><path d="M43 191v-3l-1-2-2-2-2-1-5-3-3-3a13 13 0 0 1-3-9 14 14 0 0 1 5-11l5-3h7c3 0 5 0 7 2l5 5 1 8H47v-3l-1-3-3-1-4 1-2 2-1 3v2l2 2a13 13 0 0 0 4 3l5 2 3 4 2 4 1 6-2 6a14 14 0 0 1-9 7 19 19 0 0 1-12-1 13 13 0 0 1-8-8v-7h9v3l1 3 2 2 3 1 3-1 2-2 1-3Zm25 5 15-42h5v7l-15 43h-5v-8Zm4-42v43l-2 7h-6l-1-50h9Zm16 42 13-42h10l-16 50h-7v-8Zm3-42 1 43-2 7h-5l-2-44 3-6h5Zm36 0-9 50h-10l9-50h10Zm26 0-8 50h-10l8-50h10Zm12 0-1 9h-34l2-9h33Zm22 33h9c0 4-1 7-3 9-1 3-3 5-6 7l-9 2-8-2-4-5-2-7v-8l1-8 2-8 4-7 6-5c3-1 5-2 8-1 4 0 7 0 9 2l4 6 2 9h-10v-4l-1-4-4-1-5 1-3 3-1 4-1 5-1 8a97 97 0 0 0-1 9l2 3 3 1c2 1 4 0 5-1l3-3 1-5Zm45-13-2 9h-19l1-9h20Zm-14-20-8 50h-10l8-50h10Zm24 0-8 50h-10l9-50h9Zm18 0-8 50h-10l9-50h9Zm42 0-8 50h-10l-9-33-5 33h-10l9-50h9l9 33 6-33h9Zm37 24-3 20-5 4-6 2-6 1-8-2-4-5c-2-2-2-4-3-7v-8l2-8 2-8 4-7a17 17 0 0 1 14-6c3 0 6 0 8 2 2 1 4 3 5 6l1 8h-9v-4l-2-3-4-1-4 1-3 3-2 4-1 5-1 8v9l2 3 4 1a11 11 0 0 0 4 0l2-1 2-10h-7l1-7h17Z" fill="#fff"/></g><defs><clipPath id="a"><path fill="#fff" d="M0 0h360v360H0z"/></clipPath></defs></svg>