<svg viewBox="0 0 360 360" fill="none" xmlns="http://www.w3.org/2000/svg"><g clip-path="url(#a)"><path fill="#246AD2" d="M0 0h360v360H0z"/><mask id="b" maskUnits="userSpaceOnUse" x="-278" y="71" width="493" height="93" fill="#000"><path fill="#fff" d="M-278 71h493v93h-493z"/><path d="m-236 75-14 85h-17l15-85h16Zm21 0-2 14h-58l3-14h57Zm10 0h25c6 0 10 1 13 3 4 2 6 5 8 9 2 3 2 8 2 13 0 4-1 8-3 11l-6 9-9 6-6 3h-22l2-15 14 1 7-2 4-5 2-7v-5l-1-5-5-2h-11l-12 71h-17l15-85Zm23 85-9-38h17l10 37v1h-18Zm68-69-29 69h-18l40-85h12l-5 16Zm3 69-6-71 1-14h11l11 85h-17Zm6-32-3 14h-37l2-14h38Zm62 4 16-1-5 16c-3 5-6 8-11 11-5 2-10 3-16 3-5 0-9-1-13-3-3-2-6-5-8-9l-3-11v-13l2-15 4-14 7-11c3-4 6-7 10-9s9-3 14-3c6 1 11 2 15 5 3 2 6 6 7 11 2 4 3 9 3 15h-17v-8l-2-6-7-2c-3-1-6 0-8 1l-5 6-2 7-2 8-2 15a167 167 0 0 0-1 14l3 6 6 2c4 0 6 0 8-2l4-5 3-8Zm53-57-14 85h-17l15-85h16Zm42 0-34 42-21 22v-19l14-18 20-27h21Zm-34 85L6 120l14-11 17 51H18Zm57-85-14 85H44l15-85h16Zm72 0-14 85h-17l-15-57-10 57H75l14-85h17l15 57 10-57h16Zm63 40-5 35-9 7-10 3-10 1c-5 0-10-1-13-3-4-2-6-5-8-8l-4-12v-13l2-15 4-14 6-12a29 29 0 0 1 25-11c6 1 11 2 14 4 4 3 6 6 8 10s2 9 3 15h-17v-7c-1-2-1-4-3-5-1-2-3-2-6-2-3-1-6 0-8 1l-5 6-3 7-1 8-2 15-1 7 1 7 3 6 7 2a19 19 0 0 0 7-2l3-1 3-16h-12l2-13h29Z"/></mask><path d="M-236 75h2l1-2h-3v2Zm-14 85v2h1l1-2h-2Zm-17 0h-2v2h2v-2Zm15-85v-2h-2v1l2 1Zm37 0h2v-2h-2v2Zm-2 14v2h1v-2h-1Zm-58 0h-2v2h2v-2Zm3-14v-2h-2v1l2 1Zm34-1-14 86h4l14-85-4-1Zm-12 84h-17v4h17v-4Zm-15 2 15-85-4-1-15 86h4Zm13-83h16v-4h-16v4Zm35-3-2 15h3l3-14-4-1Zm0 13h-58v4h58v-4Zm-56 2 3-14-4-1-3 15h4Zm1-12h57v-4h-57v4Zm67-2v-2h-2v1l2 1Zm25 0v-2 2Zm13 3-1 2 1-2Zm8 9-2 1 2-1Zm2 13h2-2Zm-3 11-2-1 2 1Zm-15 15-1-2 1 2Zm-6 3v2l1-1-1-1Zm-22 0-2-1-1 3h3v-2Zm2-15v-2h-2v2h2Zm14 1v2-2Zm11-7-2-1 2 1Zm2-7 2 1-2-1Zm0-5h-2 2Zm-6-7v-2 2Zm-11 0v-2h-2v2h2Zm-12 71v2h1l1-2h-2Zm-17 0h-2v2h2v-2Zm38 0h-2v2h2v-2Zm-9-38v-2h-2v2h2Zm17 0 2-1v-1h-2v2Zm10 37h2-2Zm0 1v2h2v-2h-2Zm-41-83h25v-4h-25v4Zm25 0c5 0 9 1 12 3l2-4c-4-2-8-3-14-3v4Zm12 3c3 2 6 4 7 8l4-2c-2-4-5-7-9-10l-2 4Zm7 8c2 3 2 7 2 12h4c0-5 0-10-2-14l-4 2Zm2 12c0 4-1 7-3 10l4 2c2-3 3-7 3-12h-4Zm-3 10-5 8 3 3 6-9-4-2Zm-5 8-9 6 1 3c4-1 8-4 11-6l-3-3Zm-9 6-6 3 2 3 6-3-2-3Zm-5 3h-22v4h22v-4Zm-21 2 3-14-4-1-2 14 3 1Zm1-13 14 1v-4l-14-1v4Zm14 1c3 0 6-1 8-3l-2-3-6 2v4Zm8-3 5-5-4-2-3 4 2 3Zm5-5 2-7-4-1-2 6 4 2Zm2-7v-6h-4v5l4 1Zm0-6-2-6-3 2 1 4h4Zm-2-6c-1-2-4-3-6-3v4l3 1 3-2Zm-6-3h-11v4h11v-4Zm-13 2-12 71h4l12-71h-4Zm-10 69h-17v4h17v-4Zm-15 2 15-85-4-1-15 86h4Zm38 0-9-38h-4l9 38h4Zm-11-36h17v-4h-17v4Zm15-2 10 38 4-1-10-38-4 1Zm10 37v1h4v-1h-4Zm2-1h-18v4h18v-4Zm50-67 2 1v-1h-2Zm-29 69v2h1l1-1-2-1Zm-18 0-2-1-2 3h4v-2Zm40-85v-2h-1l-1 1 2 1Zm12 0h2v-2h-2v2Zm-2 85h-2v2h2v-2Zm-6-71h-2v1l2-1Zm1-14v-2h-2v2h2Zm11 0 2-1-1-1h-1v2Zm11 85v2h2v-2h-2Zm-11-32 2 1v-3h-2v2Zm-3 14v2h2v-1l-2-1Zm-37 0h-2l-1 2h3v-2Zm2-14v-2h-2v2h2Zm28-38-30 69 4 2 29-69-3-2Zm-28 68h-18v4h18v-4Zm-17 3 41-85-4-2-40 85 3 2Zm39-84h12v-4h-12v4Zm10-3-5 16 4 1 5-16-4-1Zm2 86-6-71-4 1 6 70h4Zm-6-71 1-14h-4l-1 14h4Zm-1-12h11v-4h-11v4Zm9-2 11 85h4l-11-86-4 1Zm13 83h-17v4h17v-4Zm-13-30-3 14 4 1 3-14-4-1Zm-1 12h-37v4h37v-4Zm-35 3 2-14-4-1-2 14 4 1Zm0-13h38v-4h-38v4Zm100 2v-2h-2v1l2 1Zm16-1 2 1v-3h-2v2Zm-5 16-2-1 2 1Zm-11 11-1-2 1 2Zm-16 3v-2 2Zm-13-3-1 2 1-2Zm-8-9-1 1 1-1Zm-3-11h-2 2Zm0-13-2-1 2 1Zm2-15h2-2Zm4-14 2 1-2-1Zm7-11-2-2 2 2Zm10-9-1-2 1 2Zm14-3v2-2Zm15 5-2 1 2-1Zm7 11 2-1-2 1Zm3 15v2h2v-2h-2Zm-17 0-2-1v3h2v-2Zm0-8h-2 2Zm-2-6-2 1 2-1Zm-7-2v2-2Zm-8 1-1-1 1 1Zm-5 6-2-1 2 1Zm-2 7h-2 2Zm-2 8h-2 2Zm-2 15-2-1 2 1Zm-1 7-2-1 2 1Zm0 7h-2 2Zm3 6-2 1 2-1Zm6 2v-2 2Zm8-2-1-1 1 1Zm4-5-1-1 1 1Zm3-6 16-1v-4l-16 1v4Zm14-3c-1 6-2 11-5 15l3 2c3-5 5-10 6-16l-4-1Zm-5 15c-2 4-6 8-10 10l2 3c5-2 9-6 12-11l-4-2Zm-10 10c-4 2-9 3-15 3v4c6 0 12-1 17-4l-2-3Zm-15 3c-5 0-9-1-12-3l-2 4c4 2 8 3 14 3v-4Zm-12-3c-3-2-5-4-7-8l-3 2c2 4 4 7 8 10l2-4Zm-7-7-3-11h-4l4 12 3-1Zm-3-11v-13l-4-1v14h4Zm0-13 2-15h-3l-3 14 4 1Zm2-15 4-13-4-1c-2 4-3 9-3 14h3Zm4-13 6-11-3-3-7 13 4 1Zm6-11c3-4 6-6 10-8l-2-4-11 9 3 3Zm10-8c4-2 8-3 13-3v-4l-15 3 2 4Zm13-3c6 1 10 2 13 4l3-3c-4-3-10-4-16-5v4Zm13 4c4 3 6 6 7 10l4-1c-1-5-4-9-8-12l-3 3Zm7 10c2 5 3 9 3 15h4c0-6-1-11-3-16l-4 1Zm5 13h-17v4h17v-4Zm-15 2v-8h-4v7l4 1Zm0-8c0-3-1-5-3-7l-3 2 2 5h4Zm-3-7c-2-2-5-3-8-3v4l5 1 3-2Zm-8-3c-4-1-7 0-9 2l2 3c2-1 4-2 7-1v-4Zm-9 2-6 6 4 2 4-5-2-3Zm-6 6-2 8 3 1 3-7-4-2Zm-2 8-2 8h4l1-7-3-1Zm-2 8-2 14 4 1 2-15h-4Zm-2 14-1 7 4 1 1-7-4-1Zm-1 7v8h4v-7l-4-1Zm0 8 3 7 3-3-2-4h-4Zm3 7c2 2 5 3 8 3v-4l-5-2-3 3Zm8 3c4 0 7 0 9-2l-2-3-7 1v4Zm9-2c3-2 4-4 5-7l-3-1-4 5 2 3Zm5-7 3-8-4-1-2 8 3 1Zm54-65h2l1-2h-3v2Zm-14 85v2h1l1-2h-2Zm-17 0h-2l-1 2h3v-2Zm15-85v-2h-2v1l2 1Zm58 0 1 1 3-3h-4v2Zm-34 42 1 2-1-2Zm-21 22h-2v4l4-3-2-1Zm0-19-2-1v1h2Zm14-18 1 1-1-1Zm20-27v-2h-1l-1 1 2 1Zm-13 85-2 1v1h2v-2ZM6 120l-1-1H4v2l2-1Zm14-11h2l-1-3-2 2 1 1Zm17 51v2h2v-3l-2 1ZM8 74l-14 86h4l14-85-4-1Zm-12 84h-17v4h17v-4Zm-15 2 15-85-4-1-15 86h4Zm13-83h16v-4H-6v4Zm56-4-34 43 3 3 34-43-3-3Zm-34 43-20 21 3 3 20-21-3-3Zm-17 23v-19h-4v19h4Zm0-18 13-18-3-2-14 18 4 2Zm13-18 20-27-3-2-20 27 3 2Zm19-26h21v-4H31v4Zm-11 82L8 120l-4 1 12 40 4-2ZM8 122l13-11-2-3-14 11 3 3Zm10-12 17 51 4-2-17-50-4 1Zm19 48H18v4h19v-4Zm38-83h2l1-2h-3v2Zm-14 85v2h1l1-2h-2Zm-17 0h-2v2h2v-2Zm15-85v-2h-2v1l2 1Zm15-1-15 86h4l14-85-3-1Zm-13 84H44v4h17v-4Zm-15 2 15-85-4-1-15 86h4Zm13-83h16v-4H59v4Zm88-2h2l1-2h-3v2Zm-14 85v2h1l1-2h-2Zm-17 0-2 1 1 1h1v-2Zm-15-57h2-4 2Zm-10 57v2h2v-2h-2Zm-16 0h-2l-1 2h3v-2Zm14-85v-2h-1v1l1 1Zm17 0 2-1-1-1h-1v2Zm15 57h-2 4-2Zm10-57v-2h-2v1l2 1Zm14-1-14 86h4l14-85-4-1Zm-12 84h-17v4h17v-4Zm-15 1-15-56-4 1 15 57 4-2Zm-19-56-10 57h4l10-56-4-1Zm-8 55H75v4h16v-4Zm-14 2 14-85-3-1-15 86h4Zm12-83h17v-4H89v4Zm15-2 15 57 4-1-15-57-4 1Zm19 57 10-57-4-1-10 57 4 1Zm8-55h16v-4h-16v4Zm79 38h2v-2h-2v2Zm-5 35 1 2v-1h1l-2-1Zm-9 7-1-2 1 2Zm-10 3v-2 2Zm-10 1v2-2Zm-13-3-1 2 1-2Zm-8-8-2 1 2-1Zm-4-12h-2 2Zm0-13-2-1 2 1Zm2-15h2-2Zm4-14 2 1-2-1Zm6-12-1-1 1 1Zm11-8 1 2-1-2Zm14-3v2-2Zm14 4-1 2 1-2Zm8 10-2 1 2-1Zm3 15v2h2v-2h-2Zm-17 0h-2v2h2v-2Zm0-7h-2 2Zm-3-5-1 1 1-1Zm-6-2v-2 2Zm-8 1 1 2-1-2Zm-5 6-1-1 1 1Zm-3 7 2 1-2-1Zm-1 8h2-2Zm-2 15-2-1 2 1Zm0 14-2 1 2-1Zm3 6-2 1 2-1Zm7 2v2-2Zm3 0 1 2-1-2Zm4-2 1 2-1-2Zm3-1 1 2 1-1v-1h-2Zm3-16 2 1 1-3h-3v2Zm-12 0h-2v2h2v-2Zm2-13v-2h-1l-1 2h2Zm27 0-5 35 4 1 5-36h-4Zm-5 34-8 6 2 3c4-1 7-4 9-6l-3-3Zm-8 6-9 3 1 4 10-4-2-3Zm-9 3-10 1v4l11-1-1-4Zm-10 1c-5 0-9-1-12-3l-2 4c4 2 8 3 14 3v-4Zm-12-3-8-7-3 2 9 9 2-4Zm-8-7c-1-4-3-7-3-11h-4l4 13 3-2Zm-3-11v-13l-4-1v14h4Zm0-13 2-15h-4l-2 14 4 1Zm2-15 4-13-4-1-4 14h4Zm4-13c1-4 3-8 6-11l-3-3-7 13 4 1Zm6-11c3-4 6-6 10-8l-2-4c-5 3-8 5-11 9l3 3Zm10-8c3-2 8-3 13-3v-4c-6 0-11 1-15 3l2 4Zm13-3c6 1 10 2 13 4l2-3c-4-3-9-4-15-5v4Zm13 4c3 2 6 5 7 9l4-2c-2-4-5-8-9-10l-2 3Zm7 9c2 4 2 8 3 14h4c-1-6-1-11-3-16l-4 2Zm5 12h-17v4h17v-4Zm-15 2v-7h-4v7h4Zm0-7-3-7-3 3 2 4h4Zm-3-7-8-2v4l5 1 3-3Zm-8-2c-3-1-6 0-9 2l2 3c2-1 4-2 7-1v-4Zm-9 2c-2 1-4 3-5 6l3 2 4-5-2-3Zm-5 6-4 8 4 1 3-7-3-2Zm-4 8-1 8h4l1-7-4-1Zm-1 8-2 14 4 1 2-15h-4Zm-2 14-1 8h4l1-7-4-1Zm-1 8 1 8 4-1-1-7h-4Zm1 8 3 6 3-3-2-4-4 1Zm3 6c3 2 5 3 9 3v-4l-6-2-3 3Zm9 3h4l-1-4h-3v4Zm4 0 4-2-2-3-3 1 1 4Zm4-2 3-1-2-4-3 2 2 3Zm4-3 3-15-4-1-3 15 4 1Zm1-18h-12v4h12v-4Zm-10 2 2-12-4-1-2 13h4Zm0-11h29v-4h-29v4Z" fill="#fff" fill-opacity=".3" mask="url(#b)"/><mask id="c" maskUnits="userSpaceOnUse" x="117" y="194" width="493" height="93" fill="#000"><path fill="#fff" d="M117 194h493v93H117z"/><path d="m160 198-15 85h-17l15-85h17Zm20 0-2 14h-58l3-14h57Zm10 0h26c5 0 9 1 13 3 3 2 6 5 7 9 2 3 3 8 2 13 0 4-1 8-3 11l-6 9-9 6-6 3h-22l2-15 14 1 7-2 4-5 2-7 1-5-2-5-5-2h-11l-12 71h-17l15-85Zm23 85-9-38h17l10 37v1h-18Zm69-69-30 69h-18l40-85h12l-4 16Zm2 69-6-71 1-14h11l11 85h-17Zm6-32-3 14h-37l2-14h38Zm62 4 16-1c-1 6-2 12-5 16-3 5-6 8-11 11-4 2-10 3-16 3-5 0-9-1-13-3-3-2-5-5-7-9l-4-11 1-13 2-15c0-5 2-9 3-14l7-11c3-4 6-7 10-9s9-3 14-3c6 1 11 2 15 5 3 2 6 6 8 11l2 15h-17v-8l-2-6-7-2c-3-1-6 0-8 1l-5 6-2 7-2 8-2 15a167 167 0 0 0 0 14l2 6 6 2c4 0 6 0 8-2l5-5 2-8Zm54-57-15 85h-17l15-85h17Zm41 0-34 42-21 22v-19l14-18 20-27h21Zm-34 85-11-40 13-11 17 51h-19Zm58-85-15 85h-17l15-85h17Zm72 0-15 85h-16l-15-57-10 57h-17l15-85h16l15 57 10-57h17Zm62 40-5 35-8 7-11 3-10 1c-5 0-9-1-13-3l-8-8-4-12v-13l2-15 4-14 7-12a29 29 0 0 1 24-11c6 1 11 2 14 4 4 3 7 6 8 10 2 4 3 9 3 15h-16l-1-7c0-2-1-4-3-5-1-2-3-2-6-2-3-1-5 0-7 1-3 2-4 4-5 6-2 2-3 5-3 7l-2 8-2 15-1 7 1 7 3 6 7 2a19 19 0 0 0 7-2l3-1 3-16h-12l3-13h28Z"/></mask><path d="M160 198h2v-2h-2v2Zm-15 85v2h2v-2h-2Zm-17 0h-2v2h2v-2Zm15-85v-2h-2v1l2 1Zm37 0h2l1-2h-3v2Zm-2 14v2h1l1-2h-2Zm-58 0h-2v2h2v-2Zm3-14v-2h-2v1l2 1Zm35-1-15 86h4l15-85-4-1Zm-13 84h-17v4h17v-4Zm-15 2 15-85-4-1-15 86h4Zm13-83h17v-4h-17v4Zm35-3-2 15h4l2-14-4-1Zm0 13h-58v4h58v-4Zm-56 2 3-14-4-1-3 15h4Zm1-12h57v-4h-57v4Zm67-2v-2h-2v1l2 1Zm26 0v-2 2Zm13 3-2 2h1l1-2Zm7 9-2 1 2-1Zm2 13h2-2Zm-3 11-1-1 1 1Zm-15 15-1-2 1 2Zm-6 3v2h1v-1l-1-1Zm-22 0-2-1-1 3h3v-2Zm2-15v-2h-2v2h2Zm14 1v2-2Zm11-7-1-1 1 1Zm2-7 2 1-2-1Zm1-5h-2 2Zm-7-7v-2 2Zm-11 0v-2h-1l-1 2h2Zm-12 71v2h2v-2h-2Zm-17 0h-2v2h2v-2Zm38 0h-2v2h2v-2Zm-9-38v-2h-2v2h2Zm17 0 2-1v-1h-2v2Zm10 37h2-2Zm0 1v2h2v-2h-2Zm-41-83h26v-4h-26v4Zm26 0c4 0 8 1 11 3l3-4c-4-2-9-3-14-3v4Zm12 3c3 2 5 4 6 8l4-2-8-10-2 4Zm6 8c2 3 3 7 2 12h4c1-5 0-10-2-14l-4 2Zm2 12-2 10 3 2c2-3 3-7 3-12h-4Zm-2 10-6 8 3 3 6-9-3-2Zm-6 8-9 6 2 3c4-1 7-4 10-6l-3-3Zm-9 6-6 3 2 3 6-3-2-3Zm-5 3h-22v4h22v-4Zm-20 2 2-14-4-1-2 14 4 1Zm0-13 14 1v-4l-14-1v4Zm14 1c3 0 6-1 8-3l-2-3-6 2v4Zm8-3 5-5-3-2-4 4 2 3Zm5-5 2-7-3-1-2 6 3 2Zm2-7 1-6h-4v5l3 1Zm1-6c-1-3-1-5-3-6l-3 2 2 4h4Zm-3-6c-1-2-3-3-6-3v4l3 1 3-2Zm-6-3h-11v4h11v-4Zm-13 2-12 71h4l12-71h-4Zm-10 69h-17v4h17v-4Zm-15 2 15-85-4-1-15 86h4Zm38 0-9-38h-4l9 38h4Zm-11-36h17v-4h-17v4Zm15-2 10 38 4-1-10-38-4 1Zm10 37v1h4v-1h-4Zm2-1h-18v4h18v-4Zm51-67 1 1v-1h1-2Zm-30 69v2h1l1-1-2-1Zm-18 0-2-1-1 3h3v-2Zm40-85v-2h-1v1l1 1Zm12 0h2l1-2h-3v2Zm-2 85h-2v2h2v-2Zm-6-71h-2v1l2-1Zm1-14v-2h-2v2h2Zm11 0 2-1v-1h-2v2Zm11 85v2h2v-2h-2Zm-11-32 2 1v-3h-2v2Zm-3 14v2h2v-1l-2-1Zm-37 0h-2l-1 2h3v-2Zm2-14v-2h-1l-1 2h2Zm28-38-30 69 4 2 29-69-3-2Zm-28 68h-18v4h18v-4Zm-16 3 40-85-3-2-41 85 4 2Zm38-84h12v-4h-12v4Zm10-3-4 16 4 1 4-16-4-1Zm2 86-6-71-4 1 6 70h4Zm-6-71 1-14h-4l-1 14h4Zm-1-12h11v-4h-11v4Zm9-2 11 85h4l-11-86-4 1Zm13 83h-17v4h17v-4Zm-13-30-3 14 4 1 3-14-4-1Zm-1 12h-37v4h37v-4Zm-35 3 2-14-4-1-2 14 4 1Zm0-13h38v-4h-38v4Zm100 2v-2h-2v1l2 1Zm16-1 2 1v-3h-2v2Zm-5 16-2-1 2 1Zm-11 11-1-2 1 2Zm-16 3v-2 2Zm-13-3-1 2 1-2Zm-7-9-2 1 2-1Zm-4-11h-2 2Zm1-13-2-1 2 1Zm2-15h2-2Zm3-14 2 1-2-1Zm7-11-2-2 2 2Zm10-9-1-2 1 2Zm14-3v2-2Zm15 5-1 1 1-1Zm8 11 1-1-1 1Zm2 15v2h2v-2h-2Zm-17 0-2-1v3h2v-2Zm0-8h-2 2Zm-2-6-2 1 2-1Zm-7-2v2-2Zm-8 1-1-1 1 1Zm-5 6-1-1 1 1Zm-2 7h-2 2Zm-2 8h-2 2Zm-2 15-2-1 2 1Zm0 7-2-1 2 1Zm0 7h-2 2Zm2 6-1 1 1-1Zm6 2v-2 2Zm8-2-1-1 1 1Zm5-5-2-1 2 1Zm2-6 16-1v-4l-16 1v4Zm14-3c-1 6-2 11-5 15l4 2c3-5 4-10 5-16l-4-1Zm-5 15c-2 4-6 8-10 10l2 3c5-2 9-6 12-11l-4-2Zm-10 10c-4 2-9 3-15 3v4c7 0 12-1 17-4l-2-3Zm-15 3c-5 0-9-1-12-3l-2 4c4 2 9 3 14 3v-4Zm-12-3c-3-2-5-4-7-8l-3 2 8 10 2-4Zm-7-7-3-11h-4l4 12 3-1Zm-3-11 1-13-4-1-1 14h4Zm1-13 2-15h-4l-2 14 4 1Zm2-15 3-13-4-1c-1 4-3 9-3 14h4Zm3-13 7-11-4-3-7 13 4 1Zm7-11c2-4 5-6 9-8l-2-4-11 9 4 3Zm9-8c4-2 8-3 13-3v-4l-15 3 2 4Zm13-3 14 4 2-3c-4-3-9-4-16-5v4Zm14 4 7 10 3-1c-1-5-4-9-8-12l-2 3Zm7 10 2 15h4c0-6-1-11-3-16l-3 1Zm4 13h-17v4h17v-4Zm-15 2v-8h-4v7l4 1Zm0-8c0-3-1-5-3-7l-3 2 2 5h4Zm-3-7c-2-2-4-3-8-3v4l5 1 3-2Zm-8-3c-3-1-6 0-9 2l2 3c2-1 4-2 7-1v-4Zm-9 2c-2 1-4 3-5 6l3 2 4-5-2-3Zm-5 6c-2 2-3 5-3 8l4 1 2-7-3-2Zm-3 8-2 8h4l2-7-4-1Zm-2 8-2 14 4 1 2-15h-4Zm-2 14v7l4 1v-7l-4-1Zm0 7v8h4v-7l-4-1Zm0 8c0 3 1 5 3 7l3-3-2-4h-4Zm3 7c1 2 4 3 7 3v-4l-4-2-3 3Zm7 3c4 0 7 0 9-2l-2-3-7 1v4Zm9-2c3-2 4-4 5-7l-3-1-4 5 2 3Zm5-7c2-2 2-5 3-8l-4-1-2 8 3 1Zm55-65h2v-2h-2v2Zm-15 85v2h2v-2h-2Zm-17 0h-2v2h2v-2Zm15-85v-2h-2v1l2 1Zm58 0 2 1 2-3h-4v2Zm-34 42 1 2-1-2Zm-21 22h-2l1 4 3-3-2-1Zm0-19-1-1h-1v1h2Zm14-18 2 1-2-1Zm20-27v-2h-1l-1 1 2 1Zm-13 85-2 1v1h2v-2Zm-11-40-2-1h-1l1 2 2-1Zm13-11h2l-1-3-2 2 1 1Zm17 51v2h3l-1-3-2 1Zm-28-86-15 86h4l15-85-4-1Zm-13 84h-17v4h17v-4Zm-15 2 15-85-4-1-15 86h4Zm13-83h17v-4h-17v4Zm57-4-35 43 3 3 35-43-3-3Zm-35 43-20 21 3 3 20-21-3-3Zm-17 23v-19h-4v19h4Zm0-18 14-18-4-2-13 18 3 2Zm14-18 19-27-3-2-20 27 4 2Zm18-26h21v-4h-21v4Zm-11 82-12-39-3 1 11 40 4-2Zm-12-37 13-11-2-3-14 11 3 3Zm10-12 17 51 4-2-17-50-4 1Zm19 48h-19v4h19v-4Zm39-83h2v-2h-2v2Zm-15 85v2h2v-2h-2Zm-17 0h-2v2h2v-2Zm15-85v-2h-2v1l2 1Zm15-1-15 86h4l15-85-4-1Zm-13 84h-17v4h17v-4Zm-15 2 15-85-4-1-15 86h4Zm13-83h17v-4h-17v4Zm89-2h2v-2h-2v2Zm-15 85v2h1l1-2h-2Zm-16 0-2 1v1h2v-2Zm-15-57h1-3 2Zm-10 57v2h1l1-2h-2Zm-17 0h-2v2h2v-2Zm15-85v-2h-2v1l2 1Zm16 0 2-1v-1h-2v2Zm15 57h-2 4-2Zm10-57v-2h-2v1l2 1Zm15-1-15 86h4l15-85-4-1Zm-13 84h-16v4h16v-4Zm-15 1-15-56-3 1 15 57 3-2Zm-18-56-10 57h4l9-56-3-1Zm-8 55h-17v4h17v-4Zm-15 2 15-85-4-1-15 86h4Zm13-83h16v-4h-16v4Zm14-2 15 57 4-1-15-57-4 1Zm19 57 10-57-4-1-10 57 4 1Zm8-55h17v-4h-17v4Zm79 38h2v-2h-2v2Zm-5 35 1 2 1-1-2-1Zm-8 7-1-2 1 2Zm-11 3v-2 2Zm-10 1v2-2Zm-13-3-1 2 1-2Zm-8-8-2 1 2-1Zm-4-12h-2 2Zm0-13-2-1 2 1Zm2-15h2-2Zm4-14 2 1-2-1Zm7-12-2-1 2 1Zm10-8 1 2-1-2Zm14-3v2-2Zm14 4-1 2 1-2Zm8 10-2 1 2-1Zm3 15v2h2v-2h-2Zm-16 0h-2l-1 2h3v-2Zm-1-7h-2 2Zm-3-5-1 1 1-1Zm-6-2v-2 2Zm-7 1 1 2-1-2Zm-5 6-2-1 2 1Zm-3 7 2 1-2-1Zm-2 8h2-2Zm-2 15-2-1 2 1Zm0 14-2 1 2-1Zm3 6-1 1 1-1Zm7 2v2-2Zm4 0v2-2Zm3-2 1 2-1-2Zm3-1 1 2 1-1v-1h-2Zm3-16 2 1 1-3h-3v2Zm-12 0h-2v2h2v-2Zm3-13v-2h-2v2h2Zm26 0-5 35 4 1 5-36h-4Zm-5 34-7 6 1 3c4-1 7-4 9-6l-3-3Zm-7 6-10 3 1 4 10-4-1-3Zm-10 3-10 1v4l11-1-1-4Zm-10 1c-5 0-9-1-12-3l-2 4c4 2 9 3 14 3v-4Zm-12-3c-3-2-6-4-7-7l-4 2 9 9 2-4Zm-7-7-4-11h-4l4 13 4-2Zm-4-11v-13l-4-1v14h4Zm0-13 2-15h-4l-2 14 4 1Zm2-15 4-13-4-1-4 14h4Zm4-13c1-4 4-8 6-11l-3-3-7 13 4 1Zm6-11c3-4 6-6 10-8l-2-4c-4 3-8 5-11 9l3 3Zm10-8c4-2 8-3 13-3v-4c-5 0-11 1-15 3l2 4Zm13-3c6 1 10 2 13 4l2-3c-3-3-9-4-15-5v4Zm13 4c3 2 6 5 7 9l4-2c-2-4-5-8-9-10l-2 3Zm7 9c2 4 3 8 3 14h4c0-6-1-11-3-16l-4 2Zm5 12h-16v4h16v-4Zm-14 2-1-7h-4l1 7h4Zm-1-7c-1-3-1-5-3-7l-3 3 2 4h4Zm-3-7-8-2v4l5 1 3-3Zm-8-2c-3-1-6 0-9 2l3 3c1-1 3-2 6-1v-4Zm-9 2c-2 1-4 3-5 6l3 2 5-5-3-3Zm-5 6c-2 2-3 5-3 8l4 1 2-7-3-2Zm-3 8-2 8h4l2-7-4-1Zm-2 8-2 14 4 1 2-15h-4Zm-2 14-1 8h4l1-7-4-1Zm-1 8 1 8 4-1-1-7h-4Zm1 8 4 6 2-3-2-4-4 1Zm4 6c2 2 5 3 8 3v-4l-6-2-2 3Zm8 3h4l-1-4h-3v4Zm4 0 4-2-2-3-3 1 1 4Zm4-2 3-1-2-4-3 2 2 3Zm4-3 3-15-4-1-3 15 4 1Zm1-18h-12v4h12v-4Zm-10 2 3-12-4-1-3 13h4Zm1-11h28v-4h-28v4Z" fill="#fff" fill-opacity=".3" mask="url(#c)"/><path d="m64 154-9 50H45l9-50h10Zm12 0-2 9H41l1-9h34Zm5 0h15l8 2 4 5c1 2 2 5 1 8l-1 7-4 4-5 4-4 2H82l2-9 8 1 4-2 2-2 2-4v-3l-1-3-3-1h-6l-8 41h-9l8-50Zm14 50-5-22h10l5 21v1H95Zm40-40-17 40h-11l24-50h6l-2 10Zm1 40-3-41v-9h7l6 50h-10Zm4-19-2 9h-22l2-9h22Zm36 2h9c0 4-1 7-3 9-1 3-3 5-6 7l-9 2-8-2-4-5-2-7v-8l1-8 2-8 4-7 6-5c2-1 5-2 8-1 4 0 7 0 9 2l4 6 2 9h-10v-4l-2-4-4-1-4 1-3 3-1 4-1 5-1 8a95 95 0 0 0-1 9l2 3 3 1c2 1 4 0 5-1 1 0 2-1 2-3l2-5Zm31-33-9 50h-9l8-50h10Zm24 0-20 25-12 12v-10l8-11 12-16h12Zm-20 50-6-23 8-6 9 29h-11Zm34-50-9 50h-9l8-50h10Zm42 0-9 50h-9l-9-33-6 33h-9l8-50h10l9 33 5-33h10Zm37 24-4 20-4 4-6 2-6 1-8-2-5-5-2-7v-8l1-8 3-8c0-3 2-5 3-7a17 17 0 0 1 15-6c3 0 6 0 8 2 2 1 4 3 5 6l1 8h-9l-1-4-1-3-4-1-4 1-3 3-2 4-1 5-1 8v9l2 3 4 1a11 11 0 0 0 4 0l2-1 2-10h-7l1-7h17Z" fill="#fff"/></g><defs><clipPath id="a"><path fill="#fff" d="M0 0h360v360H0z"/></clipPath></defs></svg>