<svg xmlns="http://www.w3.org/2000/svg" viewBox="0 0 344 300"><style>@keyframes indicator_0{50%{opacity:.4}0%,to{opacity:1}}@keyframes indicator_1{50%{opacity:.4}0%,to{opacity:1}}@keyframes indicator_2{50%{opacity:.4}0%,to{opacity:1}}@keyframes indicator_3{50%{opacity:.4}0%,to{opacity:1}}@keyframes indicator_4{50%{opacity:.4}0%,to{opacity:1}}@keyframes indicator_5{50%{opacity:.4}0%,to{opacity:1}}@keyframes indicator_6{50%{opacity:.4}0%,to{opacity:1}}@keyframes indicator_7{50%{opacity:.4}0%,to{opacity:1}}@keyframes indicator_8{50%{opacity:.4}0%,to{opacity:1}}@keyframes indicator_9{50%{opacity:.4}0%,to{opacity:1}}@keyframes indicator_10{50%{opacity:.4}0%,to{opacity:1}}@keyframes indicator_11{50%{opacity:.4}0%,to{opacity:1}}@keyframes indicator_12{50%{opacity:.4}0%,to{opacity:1}}@keyframes indicator_13{50%{opacity:.4}0%,to{opacity:1}}@keyframes indicator_14{50%{opacity:.4}0%,to{opacity:1}}@keyframes indicator_15{50%{opacity:.4}0%,to{opacity:1}}@keyframes indicator_16{50%{opacity:.4}0%,to{opacity:1}}@keyframes indicator_17{50%{opacity:.4}0%,to{opacity:1}}@keyframes indicator_18{50%{opacity:.4}0%,to{opacity:1}}@keyframes indicator_19{50%{opacity:.4}0%,to{opacity:1}}@keyframes indicator_20{50%{opacity:.4}0%,to{opacity:1}}@keyframes indicator_21{50%{opacity:.4}0%,to{opacity:1}}@keyframes indicator_22{50%{opacity:.4}0%,to{opacity:1}}@keyframes indicator_23{50%{opacity:.4}0%,to{opacity:1}}</style><path d="m86 0 43 75H43L86 0Z" fill="currentcolor" style="animation:2.4s linear 0s infinite normal none running indicator_0"/><path d="M129 75 86 0h86l-43 75Z" fill="currentcolor" style="animation:2.4s linear .1s infinite normal none running indicator_1"/><path d="m172 0 43 75h-86l43-75Z" fill="currentcolor" style="animation:2.4s linear .2s infinite normal none running indicator_2"/><path d="M215 75 172 0h86l-43 75Z" fill="currentcolor" style="animation:2.4s linear .3s infinite normal none running indicator_3"/><path d="m258 0 43 75h-86l43-75Z" fill="currentcolor" style="animation:2.4s linear .4s infinite normal none running indicator_4"/><path d="m43 75 43 75H0l43-75Z" fill="currentcolor" style="animation:2.4s linear .5s infinite normal none running indicator_5"/><path d="M86 150 43 75h86l-43 75Z" fill="currentcolor" style="animation:2.4s linear .6s infinite normal none running indicator_6"/><path d="m129 75 43 75H86l43-75Z" fill="currentcolor" style="animation:2.4s linear .7s infinite normal none running indicator_7"/><path d="m172 150-43-75h86l-43 75Z" fill="currentcolor" style="animation:2.4s linear .8s infinite normal none running indicator_8"/><path d="m215 75 43 75h-86l43-75Z" fill="currentcolor" style="animation:2.4s linear .9s infinite normal none running indicator_9"/><path d="m258 150-43-75h86l-43 75Z" fill="currentcolor" style="animation:2.4s linear 1s infinite normal none running indicator_10"/><path d="m301 75 43 75h-86l43-75Z" fill="currentcolor" style="animation:2.4s linear 1.1s infinite normal none running indicator_11"/><path d="M43 225 0 150h86l-43 75Z" fill="currentcolor" style="animation:2.4s linear 1.2s infinite normal none running indicator_12"/><path d="m86 150 43 75H43l43-75Z" fill="currentcolor" style="animation:2.4s linear 1.3s infinite normal none running indicator_13"/><path d="m129 225-43-75h86l-43 75Z" fill="currentcolor" style="animation:2.4s linear 1.4s infinite normal none running indicator_14"/><path d="m172 150 43 75h-86l43-75Z" fill="currentcolor" style="animation:2.4s linear 1.5s infinite normal none running indicator_15"/><path d="m215 225-43-75h86l-43 75Z" fill="currentcolor" style="animation:2.4s linear 1.6s infinite normal none running indicator_16"/><path d="m258 150 43 75h-86l43-75Z" fill="currentcolor" style="animation:2.4s linear 1.7s infinite normal none running indicator_17"/><path d="m301 225-43-75h86l-43 75Z" fill="currentcolor" style="animation:2.4s linear 1.8s infinite normal none running indicator_18"/><path d="m86 300-43-75h86l-43 75Z" fill="currentcolor" style="animation:2.4s linear 1.9s infinite normal none running indicator_19"/><path d="m129 225 43 75H86l43-75Z" fill="currentcolor" style="animation:2.4s linear 2s infinite normal none running indicator_20"/><path d="m172 300-43-75h86l-43 75Z" fill="currentcolor" style="animation:2.4s linear 2.1s infinite normal none running indicator_21"/><path d="m215 225 43 75h-86l43-75Z" fill="currentcolor" style="animation:2.4s linear 2.2s infinite normal none running indicator_22"/><path d="m258 300-43-75h86l-43 75Z" fill="currentcolor" style="animation:2.4s linear 2.3s infinite normal none running indicator_23"/></svg>