<svg xmlns="http://www.w3.org/2000/svg" viewBox="0 0 344 300">
<style>@keyframes indicator_0{50%{opacity:.4}0%,to{opacity:1}}@keyframes indicator_1{50%{opacity:.4}0%,to{opacity:1}}@keyframes indicator_2{50%{opacity:.4}0%,to{opacity:1}}@keyframes indicator_3{50%{opacity:.4}0%,to{opacity:1}}@keyframes indicator_4{50%{opacity:.4}0%,to{opacity:1}}@keyframes indicator_5{50%{opacity:.4}0%,to{opacity:1}}@keyframes indicator_6{50%{opacity:.4}0%,to{opacity:1}}@keyframes indicator_7{50%{opacity:.4}0%,to{opacity:1}}@keyframes indicator_8{50%{opacity:.4}0%,to{opacity:1}}@keyframes indicator_9{50%{opacity:.4}0%,to{opacity:1}}@keyframes indicator_10{50%{opacity:.4}0%,to{opacity:1}}@keyframes indicator_11{50%{opacity:.4}0%,to{opacity:1}}@keyframes indicator_12{50%{opacity:.4}0%,to{opacity:1}}@keyframes indicator_13{50%{opacity:.4}0%,to{opacity:1}}@keyframes indicator_14{50%{opacity:.4}0%,to{opacity:1}}@keyframes indicator_15{50%{opacity:.4}0%,to{opacity:1}}@keyframes indicator_16{50%{opacity:.4}0%,to{opacity:1}}@keyframes indicator_17{50%{opacity:.4}0%,to{opacity:1}}@keyframes indicator_18{50%{opacity:.4}0%,to{opacity:1}}@keyframes indicator_19{50%{opacity:.4}0%,to{opacity:1}}@keyframes indicator_20{50%{opacity:.4}0%,to{opacity:1}}@keyframes indicator_21{50%{opacity:.4}0%,to{opacity:1}}@keyframes indicator_22{50%{opacity:.4}0%,to{opacity:1}}@keyframes indicator_23{50%{opacity:.4}0%,to{opacity:1}}</style>
<g><path d="m86 0 43 75H43L86 0Z" fill="currentcolor" style="animation:1.2s linear 0s infinite normal none running indicator_0"/><path d="M129 75 86 0h86l-43 75Z" fill="currentcolor" style="animation:1.2s linear -.0416667s infinite normal none running indicator_1"/><path d="m172 0 43 75h-86l43-75Z" fill="currentcolor" style="animation:1.2s linear -.0833333s infinite normal none running indicator_2"/><path d="M215 75 172 0h86l-43 75Z" fill="currentcolor" style="animation:1.2s linear -.125s infinite normal none running indicator_3"/><path d="m258 0 43 75h-86l43-75Z" fill="currentcolor" style="animation:1.2s linear -.166667s infinite normal none running indicator_4"/><path d="m43 75 43 75H0l43-75Z" fill="currentcolor" style="animation:1.2s linear -.208333s infinite normal none running indicator_5"/><path d="M86 150 43 75h86l-43 75Z" fill="currentcolor" style="animation:1.2s linear -.25s infinite normal none running indicator_6"/><path d="m129 75 43 75H86l43-75Z" fill="currentcolor" style="animation:1.2s linear -.291667s infinite normal none running indicator_7"/><path d="m172 150-43-75h86l-43 75Z" fill="currentcolor" style="animation:1.2s linear -.333333s infinite normal none running indicator_8"/><path d="m215 75 43 75h-86l43-75Z" fill="currentcolor" style="animation:1.2s linear -.375s infinite normal none running indicator_9"/><path d="m258 150-43-75h86l-43 75Z" fill="currentcolor" style="animation:1.2s linear -.416667s infinite normal none running indicator_10"/><path d="m301 75 43 75h-86l43-75Z" fill="currentcolor" style="animation:1.2s linear -.458333s infinite normal none running indicator_11"/><path d="M43 225 0 150h86l-43 75Z" fill="currentcolor" style="animation:1.2s linear -.5s infinite normal none running indicator_12"/><path d="m86 150 43 75H43l43-75Z" fill="currentcolor" style="animation:1.2s linear -.541667s infinite normal none running indicator_13"/><path d="m129 225-43-75h86l-43 75Z" fill="currentcolor" style="animation:1.2s linear -.583333s infinite normal none running indicator_14"/><path d="m172 150 43 75h-86l43-75Z" fill="currentcolor" style="animation:1.2s linear -.625s infinite normal none running indicator_15"/><path d="m215 225-43-75h86l-43 75Z" fill="currentcolor" style="animation:1.2s linear -.666667s infinite normal none running indicator_16"/><path d="m258 150 43 75h-86l43-75Z" fill="currentcolor" style="animation:1.2s linear -.708333s infinite normal none running indicator_17"/><path d="m301 225-43-75h86l-43 75Z" fill="currentcolor" style="animation:1.2s linear -.75s infinite normal none running indicator_18"/><path d="m86 300-43-75h86l-43 75Z" fill="currentcolor" style="animation:1.2s linear -.791667s infinite normal none running indicator_19"/><path d="m129 225 43 75H86l43-75Z" fill="currentcolor" style="animation:1.2s linear -.833333s infinite normal none running indicator_20"/><path d="m172 300-43-75h86l-43 75Z" fill="currentcolor" style="animation:1.2s linear -.875s infinite normal none running indicator_21"/><path d="m215 225 43 75h-86l43-75Z" fill="currentcolor" style="animation:1.2s linear -.916667s infinite normal none running indicator_22"/><path d="m258 300-43-75h86l-43 75Z" fill="currentcolor" style="animation:1.2s linear -.958333s infinite normal none running indicator_23"/></g>
<g xmlns="http://www.w3.org/2000/svg"><path d="m86 0 .868-.497L86-2.011l-.867 1.514L86 0Zm43 75v1h1.726l-.858-1.497L129 75Zm-86 0-.867-.497L41.274 76H43v-1ZM85.133.497l43 75 1.735-.994-43-75-1.735.994ZM129 74H43v2h86v-2Zm-85.132 1.497 43-75-1.735-.994-43 75 1.735.994Z" fill="currentcolor"/><path d="m129 75-.867.497.867 1.513.868-1.513L129 75ZM86 0v-1h-1.726l.859 1.497L86 0Zm86 0 .868.497.858-1.497H172v1Zm-42.132 74.503-43-75-1.735.994 43 75 1.735-.994ZM86 1h86v-2H86v2Zm85.133-1.497-43 75 1.735.994 43-75-1.735-.994Z" fill="currentcolor"/><path d="m172 0 .868-.497L172-2.011l-.867 1.514L172 0Zm43 75v1h1.726l-.858-1.497L215 75Zm-86 0-.867-.497-.859 1.497H129v-1ZM171.133.497l43 75 1.735-.994-43-75-1.735.994ZM215 74h-86v2h86v-2Zm-85.132 1.497 43-75-1.735-.994-43 75 1.735.994Z" fill="currentcolor"/><path d="m215 75-.868.497.868 1.513.868-1.513L215 75ZM172 0v-1h-1.726l.858 1.497L172 0Zm86 0 .868.497.858-1.497H258v1Zm-42.132 74.503-43-75-1.736.994 43 75 1.736-.994ZM172 1h86v-2h-86v2Zm85.132-1.497-43 75 1.736.994 43-75-1.736-.994Z" fill="currentcolor"/><path d="m258 0 .868-.497L258-2.011l-.867 1.514L258 0Zm43 75v1h1.726l-.858-1.497L301 75Zm-86 0-.867-.497-.859 1.497H215v-1ZM257.133.497l43 75 1.735-.994-43-75-1.735.994ZM301 74h-86v2h86v-2Zm-85.132 1.497 43-75-1.735-.994-43 75 1.735.994ZM43 75l.868-.497L43 72.99l-.867 1.513L43 75Zm43 75v1h1.726l-.858-1.497L86 150Zm-86 0-.867-.497-.859 1.497H0v-1Zm42.133-74.503 43 75 1.735-.994-43-75-1.735.994ZM86 149H0v2h86v-2ZM.868 150.497l43-75-1.735-.994-43 75 1.735.994Z" fill="currentcolor"/><path d="m86 150-.867.497.867 1.514.868-1.514L86 150ZM43 75v-1h-1.726l.859 1.497L43 75Zm86 0 .868.497.858-1.497H129v1Zm-42.132 74.503-43-75-1.735.994 43 75 1.735-.994ZM43 76h86v-2H43v2Zm85.133-1.497-43 75 1.735.994 43-75-1.735-.994Z" fill="currentcolor"/><path d="m129 75 .868-.497L129 72.99l-.867 1.513L129 75Zm43 75v1h1.726l-.858-1.497L172 150Zm-86 0-.867-.497-.859 1.497H86v-1Zm42.133-74.503 43 75 1.735-.994-43-75-1.735.994ZM172 149H86v2h86v-2Zm-85.132 1.497 43-75-1.735-.994-43 75 1.735.994Z" fill="currentcolor"/><path d="m172 150-.867.497.867 1.514.868-1.514L172 150Zm-43-75v-1h-1.726l.859 1.497L129 75Zm86 0 .868.497.858-1.497H215v1Zm-42.132 74.503-43-75-1.735.994 43 75 1.735-.994ZM129 76h86v-2h-86v2Zm85.133-1.497-43 75 1.735.994 43-75-1.735-.994Z" fill="currentcolor"/><path d="m215 75 .868-.497L215 72.99l-.867 1.513L215 75Zm43 75v1h1.726l-.858-1.497L258 150Zm-86 0-.867-.497-.859 1.497H172v-1Zm42.133-74.503 43 75 1.735-.994-43-75-1.735.994ZM258 149h-86v2h86v-2Zm-85.132 1.497 43-75-1.735-.994-43 75 1.735.994Z" fill="currentcolor"/><path d="m258 150-.868.497.868 1.514.868-1.514L258 150Zm-43-75v-1h-1.726l.858 1.497L215 75Zm86 0 .868.497.858-1.497H301v1Zm-42.132 74.503-43-75-1.736.994 43 75 1.736-.994ZM215 76h86v-2h-86v2Zm85.132-1.497-43 75 1.736.994 43-75-1.736-.994Z" fill="currentcolor"/><path d="m301 75 .868-.497L301 72.99l-.868 1.513L301 75Zm43 75v1h1.726l-.858-1.497L344 150Zm-86 0-.868-.497-.858 1.497H258v-1Zm42.132-74.503 43 75 1.736-.994-43-75-1.736.994ZM344 149h-86v2h86v-2Zm-85.132 1.497 43-75-1.736-.994-43 75 1.736.994ZM43 225l-.867.497.867 1.514.867-1.514L43 225ZM0 150v-1h-1.726l.858 1.497L0 150Zm86 0 .868.497.858-1.497H86v1Zm-42.133 74.503-43-75-1.735.994 43 75 1.736-.994ZM0 151h86v-2H0v2Zm85.132-1.497-43 75 1.736.994 43-75-1.736-.994Z" fill="currentcolor"/><path d="m86 150 .868-.497L86 147.99l-.868 1.513L86 150Zm43 75v1h1.726l-.858-1.497L129 225Zm-86 0-.867-.497-.859 1.497H43v-1Zm42.132-74.503 43 75 1.736-.994-43-75-1.736.994ZM129 224H43v2h86v-2Zm-85.132 1.497 43-75-1.736-.994-43 75 1.736.994Z" fill="currentcolor"/><path d="m129 225-.868.497.868 1.514.868-1.514L129 225Zm-43-75v-1h-1.726l.858 1.497L86 150Zm86 0 .867.497.859-1.497H172v1Zm-42.132 74.503-43-75-1.736.994 43 75 1.736-.994ZM86 151h86v-2H86v2Zm85.132-1.497-43 75 1.736.994 42.999-75-1.735-.994Z" fill="currentcolor"/><path d="m172 150 .868-.497-.868-1.513-.868 1.513.868.497Zm43 75v1h1.726l-.858-1.497L215 225Zm-86 0-.868-.497-.858 1.497H129v-1Zm42.132-74.503 43 75 1.736-.994-43-75-1.736.994ZM215 224h-86v2h86v-2Zm-85.132 1.497 43-75-1.736-.994-43 75 1.736.994Z" fill="currentcolor"/><path d="m215 225-.868.497.868 1.514.868-1.514L215 225Zm-43-75v-1h-1.726l.858 1.497L172 150Zm86 0 .867.497.859-1.497H258v1Zm-42.132 74.503-43.001-75-1.735.994 43 75 1.736-.994ZM172 151h86v-2h-86v2Zm85.132-1.497-43 75 1.736.994 42.999-75-1.735-.994Z" fill="currentcolor"/><path d="m258 150 .868-.497-.868-1.513-.868 1.513.868.497Zm43 75v1h1.726l-.858-1.497L301 225Zm-86 0-.868-.497-.858 1.497H215v-1Zm42.132-74.503 43 75 1.736-.994-43-75-1.736.994ZM301 224h-86v2h86v-2Zm-85.132 1.497 43-75-1.736-.994-43 75 1.736.994Z" fill="currentcolor"/><path d="m301 225-.868.497.868 1.514.868-1.514L301 225Zm-43-75v-1h-1.726l.858 1.497L258 150Zm86 0 .868.497.858-1.497H344v1Zm-42.132 74.503-43-75-1.736.994 43 75 1.736-.994ZM258 151h86v-2h-86v2Zm85.132-1.497-43 75 1.736.994 43-75-1.736-.994ZM86 300l-.868.498.868 1.513.868-1.513L86 300Zm-43-75v-1h-1.726l.858 1.498L43 225Zm86 0 .867.498.859-1.498H129v1Zm-42.132 74.503-43-75-1.736.995 43 75 1.736-.995ZM43 226h86v-2H43v2Zm85.132-1.497-43 75 1.736.995 42.999-75-1.735-.995Z" fill="currentcolor"/><path d="m129 225 .868-.497-.868-1.513-.868 1.513.868.497Zm43 75v1h1.726l-.858-1.497L172 300Zm-86 0-.868-.497-.858 1.497H86v-1Zm42.132-74.503 43 75 1.736-.994-43-75-1.736.994ZM172 299H86v2h86v-2Zm-85.132 1.498 43-75.001-1.736-.994-43 75 1.736.995Z" fill="currentcolor"/><path d="m172 300-.868.498.868 1.513.868-1.513L172 300Zm-43-75v-1h-1.726l.858 1.498L129 225Zm86 0 .867.498.859-1.498H215v1Zm-42.132 74.503-43.001-75-1.735.995 43 75 1.736-.995ZM129 226h86v-2h-86v2Zm85.132-1.497-43 75 1.736.995 42.999-75-1.735-.995Z" fill="currentcolor"/><path d="m215 225 .868-.497-.868-1.513-.868 1.513.868.497Zm43 75v1h1.726l-.858-1.497L258 300Zm-86 0-.868-.497-.858 1.497H172v-1Zm42.132-74.503 43 75 1.736-.994-43-75-1.736.994ZM258 299h-86v2h86v-2Zm-85.132 1.498 43-75.001-1.736-.994-43 75 1.736.995Z" fill="currentcolor"/><path d="m258 300-.868.498.868 1.513.868-1.513L258 300Zm-43-75v-1h-1.726l.858 1.498L215 225Zm86 0 .867.498.859-1.498H301v1Zm-42.132 74.503-43.001-75-1.735.995 43 75 1.736-.995ZM215 226h86v-2h-86v2Zm85.132-1.497-43 75 1.736.995 42.999-75-1.735-.995Z" fill="currentcolor"/></g>
</svg>