<svg xmlns="http://www.w3.org/2000/svg" viewBox="0 0 74 66" fill="none"><style>@keyframes i_0{50%{opacity:.4}}@keyframes i_1{50%{opacity:.4}}@keyframes i_2{50%{opacity:.4}}@keyframes i_3{50%{opacity:.4}}@keyframes i_4{50%{opacity:.4}}@keyframes i_5{50%{opacity:.4}}@keyframes i_6{50%{opacity:.4}}@keyframes i_7{50%{opacity:.4}}@keyframes i_8{50%{opacity:.4}}@keyframes i_9{50%{opacity:.4}}@keyframes i_10{50%{opacity:.4}}@keyframes i_11{50%{opacity:.4}}@keyframes i_12{50%{opacity:.4}}@keyframes i_13{50%{opacity:.4}}@keyframes i_14{50%{opacity:.4}}@keyframes i_15{50%{opacity:.4}}@keyframes i_16{50%{opacity:.4}}@keyframes i_17{50%{opacity:.4}}@keyframes i_18{50%{opacity:.4}}@keyframes i_19{50%{opacity:.4}}@keyframes i_20{50%{opacity:.4}}@keyframes i_21{50%{opacity:.4}}@keyframes i_22{50%{opacity:.4}}@keyframes i_23{50%{opacity:.4}}</style><path d="m19 1 9 16H10l9-16Z" fill="currentcolor" style="animation:1.2s linear 0s infinite normal none running i_0"/><path d="M28 17 19 1h18l-9 16Z" fill="currentcolor" style="animation:1.2s linear -.0416667s infinite normal none running i_1"/><path d="m37 1 9 16H28l9-16Z" fill="currentcolor" style="animation:1.2s linear -.0833333s infinite normal none running i_2"/><path d="M46 17 37 1h18l-9 16Z" fill="currentcolor" style="animation:1.2s linear -.125s infinite normal none running i_3"/><path d="m55 1 9 16H46l9-16Z" fill="currentcolor" style="animation:1.2s linear -.166667s infinite normal none running i_4"/><path d="m10 17 9 16H1l9-16Z" fill="currentcolor" style="animation:1.2s linear -.208333s infinite normal none running i_5"/><path d="m19 33-9-16h18l-9 16Z" fill="currentcolor" style="animation:1.2s linear -.25s infinite normal none running i_6"/><path d="m28 17 9 16H19l9-16Z" fill="currentcolor" style="animation:1.2s linear -.291667s infinite normal none running i_7"/><path d="m37 33-9-16h18l-9 16Z" fill="currentcolor" style="animation:1.2s linear -.333333s infinite normal none running i_8"/><path d="m46 17 9 16H37l9-16Z" fill="currentcolor" style="animation:1.2s linear -.375s infinite normal none running i_9"/><path d="m55 33-9-16h18l-9 16Z" fill="currentcolor" style="animation:1.2s linear -.416667s infinite normal none running i_10"/><path d="m64 17 9 16H55l9-16Z" fill="currentcolor" style="animation:1.2s linear -.458333s infinite normal none running i_11"/><path d="M10 49 1 33h18l-9 16Z" fill="currentcolor" style="animation:1.2s linear -.5s infinite normal none running i_12"/><path d="m19 33 9 16H10l9-16Z" fill="currentcolor" style="animation:1.2s linear -.541667s infinite normal none running i_13"/><path d="m28 49-9-16h18l-9 16Z" fill="currentcolor" style="animation:1.2s linear -.583333s infinite normal none running i_14"/><path d="m37 33 9 16H28l9-16Z" fill="currentcolor" style="animation:1.2s linear -.625s infinite normal none running i_15"/><path d="m46 49-9-16h18l-9 16Z" fill="currentcolor" style="animation:1.2s linear -.666667s infinite normal none running i_16"/><path d="m55 33 9 16H46l9-16Z" fill="currentcolor" style="animation:1.2s linear -.708333s infinite normal none running i_17"/><path d="m64 49-9-16h18l-9 16Z" fill="currentcolor" style="animation:1.2s linear -.75s infinite normal none running i_18"/><path d="m19 65-9-16h18l-9 16Z" fill="currentcolor" style="animation:1.2s linear -.791667s infinite normal none running i_19"/><path d="m28 49 9 16H19l9-16Z" fill="currentcolor" style="animation:1.2s linear -.833333s infinite normal none running i_20"/><path d="m37 65-9-16h18l-9 16Z" fill="currentcolor" style="animation:1.2s linear -.875s infinite normal none running i_21"/><path d="m46 49 9 16H37l9-16Z" fill="currentcolor" style="animation:1.2s linear -.916667s infinite normal none running i_22"/><path d="m55 65-9-16h18l-9 16Z" fill="currentcolor" style="animation:1.2s linear -.958333s infinite normal none running i_23"/><path d="m19 1 9 16M19 1l-9 16m9-16h18m-9 16H10m18 0 9-16m-9 16h18m-18 0-9 16m9-16 9 16M10 17l9 16m-9-16L1 33M37 1l9 16M37 1h18m-9 16 9-16m-9 16h18m-18 0-9 16m9-16 9 16m0-32 9 16m0 0-9 16m9-16 9 16m-54 0H1m18 0h18m-18 0-9 16m9-16 9 16M1 33l9 16m27-16h18m-18 0-9 16m9-16 9 16m9-16h18m-18 0-9 16m9-16 9 16m9-16-9 16m-54 0h18m-18 0 9 16m9-16h18m-18 0-9 16m9-16 9 16m9-16h18m-18 0-9 16m9-16 9 16m9-16-9 16m-36 0h18m0 0h18" stroke="currentcolor"/></svg>